<svg id="Layer_1" data-name="Layer 1" xmlns="http://www.w3.org/2000/svg" viewBox="0 0 550 400"><defs><style>.cls-1{fill:#fff;}.cls-1,.cls-2,.cls-3,.cls-4,.cls-5,.cls-6,.cls-7,.cls-8,.cls-9{fill-rule:evenodd;}.cls-2{fill:#ed1b24;}.cls-3{fill:#bfd630;}.cls-4{fill:#0194da;}.cls-5{fill:#b11707;}.cls-6{fill:#234986;}.cls-7{fill:#007e27;}.cls-8{fill:#6a2;}.cls-9{fill:#020202;}</style></defs><title>l</title><path class="cls-1" d="M189.19,306.78c.45-4.51.24-9.09,1.24-13.54l5.34.27c-.13,4.45-.27,8.9-.84,13.32Zm243.05-21c1.73,5.3,1,11,1.53,16.48l-4.14,0C430.58,296.71,431.57,291.24,432.24,285.73ZM240.15,302c1.23-5.34,1.3-11,3.23-16.14,0,5.49.91,10.94.81,16.43ZM191.28,276.2l5.5,0c-.09,4.64-.44,9.27-.67,13.9l-5.71.1C190.7,285.56,190.64,280.85,191.28,276.2Zm-49.68.06,5.66-.12c.05,5.6-.69,11.17-1.12,16.75-1.89-.07-3.78-.16-5.67-.3C141.07,287.16,141.43,281.71,141.6,276.26Zm79.7-39.08.6.13c-.92,1.84-.79,4.41-2.83,5.47C219.77,240.89,220.63,239.07,221.3,237.18Zm211,35.73c-2.19,12.51-4.54,25-6.71,37.5,3.24.37,3.14-2.84,3.56-5l4.49,0c.18,1.61.37,3.22.57,4.85l2.65-.1c-.79-12.46-1.21-24.94-2.1-37.4Zm-45.74.15c-.75,11.15-1.28,22.32-2.07,33.48l-4.41.45c0,.83.05,2.5.07,3.33,2.09-.23,4.93.07,6-2.21,1.57-3.81,1.29-8,1.6-12.07.62-7.59,1-15.2,1.55-22.8Zm-49.41.26c.54,1.86,1.76,3.6,1.49,5.62-.36,8-1.26,16-1.46,24,.17,2.62-1.73,4.7-2,7.25,1.85,0,3.71,0,5.57,0a3.29,3.29,0,0,0-1.24-4.15c.94-9.77,1.23-19.58,2.05-29.36,1-.8,2.68-2.34,1.05-3.48C341.23,272,339,273.31,337.19,273.32Zm-49.53,0c-.35,12.42-1.74,24.79-2.21,37.21l2.48-.72c1-5.85.58-11.91,1.34-17.82.5-3-.48-6.5,1.14-9.25,1.19,9,2.19,18,3.43,27l1.1.68,1.29-.44c1.28-12.35,1.74-24.8,2.65-37.19h-2.66c-.79,9.53-1.23,19.09-1.69,28.65-1.22-2.63-1.19-5.58-1.61-8.39-.73-6.62-1.8-13.2-2.37-19.83Zm-99,.07c-.36,12.31-1.69,24.57-2.24,36.87,3.15-.43,7.08.9,9.74-1.06,2.25-5.31,2.53-11.57,1.65-17.23,1.23-6,2.61-12.47.57-18.44C195.18,273.05,191.81,272.14,188.66,273.38Zm-49.36-.28c-.56,12.36-1.94,24.69-2.17,37.07l2.26.18c.34-4.83.58-9.67,1.19-14.47,1.55,4.54,2.81,9.18,4,13.83l3.1.75c-.78-4.74-2.36-9.29-3.5-13.94,4.86-.29,4.74-5.85,5.2-9.45.08-4.47,1.54-9.52-1-13.57C145.6,272.12,142.29,272.88,139.3,273.1ZM89.6,273c-1.18,7.3-.92,14.75-1.74,22.09-.14,4.84-1.31,9.92.53,14.57,2.61.67,5.43.93,7.94-.25,1.33-1.52,1.64-3.57,2-5.48.92-10.29,1.28-20.62,2.11-30.91l-2.71.38c-.49,11.13-1.38,22.25-2.19,33.37-1.85,0-3.71.06-5.57.09.4-11.4,1.83-22.75,2-34.17Zm153-.24c-2,12.55-4.69,25-6.55,37.54l2.61-.2c.27-1.57.57-3.14.85-4.7,1.65,0,3.29.08,4.94.14.34,1.58-.9,4.35,1.39,4.83l1.81-.86a33.41,33.41,0,0,1-.84-7.52c-.15-9.76-1-19.49-1.41-29.24Zm152.2-20.65c.36,1,.72,2,1.09,2.94.92-.6,1.85-1.19,2.78-1.77,1.23,1.81,1.67,5,4.35,5.1,2.52-.06,4.21-2.22,6.08-3.62-.39-.84-.78-1.67-1.16-2.5-1.17.65-2.34,1.28-3.56,1.83-.7-2.16-1.11-4.41-1.78-6.58C399.21,245.15,397.25,250.46,394.79,252.07Zm-131.56.06,1.35,3,2.34-2a56.62,56.62,0,0,0,3.06,4.91c3.08,1.19,5.33-1.6,7.58-3.17-.33-.71-1-2.12-1.35-2.83-1.12.56-2,2.25-3.49,1.54-.76-2.16-1.15-4.42-1.72-6.62C267.39,245.84,265.77,250.42,263.23,252.13Zm-72.92,0,1.09,3,2.68-1.78c1.39,2.21,2.38,6.16,5.87,4.89,2.16-1.22,6.4-3.15,3.63-6.09-1.27.41-2.35,2.35-3.86,1.52-.9-2.38-.19-7-3.87-6.87A75.87,75.87,0,0,0,190.31,252.08Zm-65.41.16c.63,1,1.32,4.06,2.86,1.74l1-.77c1,1.61,1.57,3.74,3.2,4.88,3.05,1.1,5.21-1.78,7.37-3.38-.28-.55-.84-1.65-1.11-2.2-1.37-.25-2.34,1.22-3.52,1.66-1.4-2.57-.55-6.87-4-7.81C128.79,248.3,126.86,250.28,124.9,252.24Zm108.32-.1,1,3.05c1.57-1.43,3.11-2.89,4.71-4.27-.89,3-2.26,5.9-2,9.08,5.22.88,6.39-5.8,10.68-7.47a27.64,27.64,0,0,0,3.3,4.44c2.17.63,3.71-1.14,5.31-2.25-.7-1.26-1.25-2.89-3-2.51-.93-1.93-1.2-5.36-4.11-5-2.55.58-4.2,2.8-5.86,4.64,1-2.63,1.95-5.39,1.24-8.22l-3.32,0C238.23,246.2,236,249.45,233.22,252.14Zm119.12-6c-.68,2.61-3.11,4.14-4.83,6l1.08,2.75c3-1.4,4.45-4.75,7.29-6.42,1.53,3.75-2,7.32-1,10.89,3.75.86,6.41-2.83,9.33-4.56-.61-.95-1.23-1.89-1.85-2.81-1,1-2,1.92-3,2.88,1.32-3.4,2.07-7.6-.81-10.46C356.92,241.75,352.77,243.35,352.34,246.09Zm73.53-3.25c-3.26,3-6,6.54-9.56,9.22.29.77.88,2.31,1.17,3.09,2.34-2.16,4.46-4.57,7.13-6.35-.14,1.08-.42,3.22-.57,4.29l-2.56.57a16.81,16.81,0,0,0,.71,7.31c4.13-.21,6.53-4.32,9.81-6.37-.53-.91-1.07-1.81-1.61-2.7l-3,2.95a32.93,32.93,0,0,0,2.38-9.92C430.12,243,427.25,241.26,425.87,242.84Zm-40.82.09c-1.57,4.26-2.85,8.78-5.66,12.43-.67-3.75.07-7.57-.49-11.3l-1-.33c-3.18,2-3.89,6.21-6.66,8.71.33.9.67,1.81,1,2.72l2.68-2.39c.41,2.71-.43,8.76,4.05,7.65,5.14-4.44,7.15-11.56,8.7-17.94C386.8,242.61,385.92,242.76,385.05,242.93Zm-69.82-.75c-3.65,3.12-6.43,7.16-10.48,9.82.47,1,1,2.09,1.48,3.11a71,71,0,0,1,6.85-6.35q-.15,2.22-.42,4.44c-1.53.07-3.24.79-2.73,2.67.48,1.7-.36,4.74,2,5.24,3.25-1.47,5.52-4.4,8.62-6.14l-1.39-3.11c-1,1-2,1.94-2.93,2.93,1.05-4,3-8.13,1.46-12.25Zm-158.83.48c-3.45,3-6.26,6.58-9.83,9.4l.83,3.12c2.53-2.1,4.83-4.48,7.48-6.42-.2,1.41-.41,2.83-.66,4.25-4.46.32-2.46,5.76-1.36,8.37,3.57-1.49,6.19-4.43,9.32-6.6L160.39,252c-.95,1-1.87,2-2.82,3a28.07,28.07,0,0,0,2.32-11C159.24,242.87,157.62,241.41,156.4,242.66Zm176.11,0c-2.53,2.91-2.79,7-4.76,10.19.22,1.94,2.64,2.16,3.4,3.82,1,2.09,3.69,1.38,5.41.71,2.06-1,5.44-2.87,2.74-5.29-1.88.88-4.26,1.95-5.85-.05,2-2.13,4-4.27,5.14-7-.2-1.58.34-3.44-.84-4.75A5,5,0,0,0,332.51,242.68ZM400,240.92c1.64,1,3.26-.33,4.72-1,.29-1.87,2.86-5.72-.69-5.71C401.44,235,398.36,238,400,240.92ZM268.25,238.1c-.69,1.49-.26,3.51,1.75,3.28,3.34-.33,4.09-4,4.48-6.67C271.74,233.21,269.36,235.81,268.25,238.1Zm-69.7-3.52c-2.07,1.35-5.62,5.58-1.67,6.86,2.88-.29,4.23-3,4.55-5.59C202,234.25,199.4,233.8,198.55,234.58Zm-68.73,6.69c4.17,1,6.36-3,6.4-6.59C132.41,233,129,237.76,129.82,241.27Zm48.76-4.54c-2.5,0-5,0-7.47,0a8.94,8.94,0,0,0-.29,4.25c1.94.75,4.05.42,6.06.53a61.22,61.22,0,0,1-7.64,10.62l.87,3a25.74,25.74,0,0,0,5.8-6.12,17.68,17.68,0,0,0-1.84,9.06c-.14,1.39,1.5,3.17,2.87,2.23,2.36-1.6,4.15-3.88,6.37-5.65l-1-2.19c-1.59,0-2.63,1.5-3.9,2.25a71.16,71.16,0,0,1,3-12.49c.44-.31,1.33-.93,1.78-1.23.21-2.63.6-5.5-.27-8C180.49,231.9,179.58,235.22,178.58,236.73Zm43.49-8.7a43.39,43.39,0,0,0-7.69,20.17c0,1.75-1.59,2.74-2.6,3.94q.56,1.44,1.14,2.88l1.87-1.07a35.2,35.2,0,0,0,1.53,3.65c3.65,1.89,7.49.11,9.74-3q-.57-1.24-1.11-2.49a8.47,8.47,0,0,1-5.92,1.8c-.34-1.27-.68-2.55-1-3.82,4.29-6.78,9.48-14.6,7.82-23C224.53,227.21,222.88,226.65,222.07,228Zm-110-5.11a49,49,0,0,1-4.2-2.61L106.19,222a57.44,57.44,0,0,0,4.63,5.59c-8.52,2.15-13.88,11-14.74,19.37-.32,5,1.16,11.58,6.79,12.9,5.65,2.39,10.44-2.42,15-5.05l-1.49-2.62c-2.83,1.83-5.6,4.75-9.28,4.28-3.26-.37-5.18-3.54-5.91-6.46-.43-5.65,1-11.8,5.17-15.86,2-1.7,5.26-2.86,7.23-.56a22.48,22.48,0,0,0-3.14,13.17h3.48c2.4-5.16,4-11.15,2.77-16.81-.37-2-2.84-1.87-4.35-2.44a28.35,28.35,0,0,0,5.28-6.42C116.05,217.51,113.6,221.66,112,222.92ZM342.71,90.38l-.16.4c-1.37,1.43-3.16,3-2.77,5.19,0,39.37-.07,78.76.37,118.13,12-12.94,24.24-25.73,36.45-38.51.11-27.32.17-54.64,0-81.95,9-.24,18-.15,27,0,.24-13,.4-26.05-.07-39.05-9.51.25-19,0-28.53.14Q358.77,72.5,342.71,90.38ZM195.34,55c.11,12.84-.12,25.67.13,38.5,16.67,0,33.35.25,50-.1,1.32,7.46,0,15.11.44,22.65.23,14.31-.3,28.63,0,42.95.59,6.05-.68,12.21.7,18.19l1.48.63a85,85,0,0,0,7.82,8.17c9.21,9.51,18.24,19.22,27.81,28.36,17.84-.18,35.67,0,53.51-.1.11-12.88,0-25.76.07-38.64-17.87-.19-35.75,0-53.62-.08-.42-27.37,0-54.76-.23-82.15-6.74-7.88-13.38-15.83-20.06-23.76-4.55-4.84-8.12-10.65-13.31-14.87-13.68-.26-27.38,0-41.07-.12C204.47,54.72,199.88,54.32,195.34,55Zm-2.84,0c-4.74,4.75-9.75,9.31-13.93,14.55-8.18,7.53-15.57,15.92-23.5,23.73l.09,1.35-.61-.87c-.12,27.23-.06,54.47,0,81.71-9.18.21-18.36,0-27.53.12,0,12.9-.35,25.82.18,38.71,10.06,0,20.11-.11,30.17.09,11.92-12.76,23.3-26,35.11-38.89C192.45,135.31,192.55,95.15,192.5,55ZM0,0H550V400H0Z"/><path class="cls-2" d="M192.5,55c.05,40.17-.05,80.33-.05,120.5-11.81,12.87-23.19,26.13-35.11,38.89-10.06-.2-20.11-.08-30.17-.09-.53-12.89-.17-25.81-.18-38.71,9.17-.16,18.35.09,27.53-.12,0-27.24-.09-54.48,0-81.71l.61.87c.37,8.79.28,17.61-.07,26.4.63,18,0,36,.37,54,.56-17.66-.21-35.35.45-53-.28-8.67-.47-17.36-.11-26-.18-1.69,1.91-2.07,3.16-2,10.95,0,21.91,0,32.87.15-.7-12,.25-24-.53-35.92-4.93,3-7.89,8.25-12.73,11.33C182.75,64.29,187.76,59.73,192.5,55Z"/><path class="cls-3" d="M195.34,55c4.54-.66,9.13-.26,13.69-.37,13.69.07,27.39-.14,41.07.12,5.19,4.22,8.76,10,13.31,14.87,6.68,7.93,13.32,15.88,20.06,23.76.26,27.39-.19,54.78.23,82.15l0,.41c-12.31-.43-24.65-.4-37-.08l1.36,2-1.48-.63c-1.38-6-.11-12.14-.7-18.19-.31-14.32.22-28.64,0-42.95-.49-7.54.88-15.19-.44-22.65-16.66.35-33.34.12-50,.1C195.22,80.65,195.45,67.82,195.34,55Z"/><path class="cls-4" d="M342.71,90.38q16.05-17.89,32.23-35.67c9.51-.12,19,.11,28.53-.14.47,13,.31,26,.07,39.05-9-.13-18-.22-27,0-.46,25.1,0,50.21-.19,75.32a38.09,38.09,0,0,1-1,6.53c-11.59.24-23.18.17-34.77,0-.49-25.51,0-51-.24-76.54-.23-2.94,1.17-5.56,2.21-8.2Z"/><path class="cls-5" d="M178.57,69.53c4.84-3.08,7.8-8.33,12.73-11.33.78,12-.17,24,.53,35.92-11-.18-21.92-.1-32.87-.15-1.25-.07-3.34.31-3.16,2-.36,8.67-.17,17.36.11,26-.66,17.67.11,35.36-.45,53-.4-18,.26-36-.37-54,.35-8.79.44-17.61.07-26.4l-.09-1.35C163,85.45,170.39,77.06,178.57,69.53Z"/><path class="cls-6" d="M432.24,285.73c-.67,5.51-1.66,11-2.61,16.45l4.14,0C433.28,296.73,434,291,432.24,285.73Zm.1-12.82,2.46-.15c.89,12.46,1.31,24.94,2.1,37.4l-2.65.1c-.2-1.63-.39-3.24-.57-4.85l-4.49,0c-.42,2.2-.32,5.41-3.56,5C427.8,297.9,430.15,285.42,432.34,272.91Zm-45.74.15,2.76.18c-.55,7.6-.93,15.21-1.55,22.8-.31,4,0,8.26-1.6,12.07-1.09,2.28-3.93,2-6,2.21,0-.83-.06-2.5-.07-3.33l4.41-.45C385.32,295.38,385.85,284.21,386.6,273.06Zm-49.41.26c1.76,0,4-1.36,5.5-.08,1.63,1.14-.07,2.68-1.05,3.48-.82,9.78-1.11,19.59-2.05,29.36a3.29,3.29,0,0,1,1.24,4.15c-1.86,0-3.72,0-5.57,0,.23-2.55,2.13-4.63,2-7.25.2-8,1.1-16,1.46-24C339,276.92,337.73,275.18,337.19,273.32Zm-49.53,0,2.89-.1c.57,6.63,1.64,13.21,2.37,19.83.42,2.81.39,5.76,1.61,8.39.46-9.56.9-19.12,1.69-28.65h2.66c-.91,12.39-1.37,24.84-2.65,37.19l-1.29.44-1.1-.68c-1.24-9-2.24-18-3.43-27-1.62,2.75-.64,6.21-1.14,9.25-.76,5.91-.3,12-1.34,17.82l-2.48.72C285.92,298.1,287.31,285.73,287.66,273.31Zm-98.47,33.47,5.74.05c.57-4.42.71-8.87.84-13.32l-5.34-.27C189.43,297.69,189.64,302.27,189.19,306.78Zm2.09-30.58c-.64,4.65-.58,9.36-.88,14l5.71-.1c.23-4.63.58-9.26.67-13.9Zm-2.62-2.82c3.15-1.24,6.52-.33,9.72.14,2,6,.66,12.44-.57,18.44.88,5.66.6,11.92-1.65,17.23-2.66,2-6.59.63-9.74,1.06C187,298,188.3,285.69,188.66,273.38Zm-47.06,2.88c-.17,5.45-.53,10.9-1.13,16.33,1.89.14,3.78.23,5.67.3.43-5.58,1.17-11.15,1.12-16.75Zm-2.3-3.16c3-.22,6.3-1,9.11.4,2.49,4.05,1,9.1,1,13.57-.46,3.6-.34,9.16-5.2,9.45,1.14,4.65,2.72,9.2,3.5,13.94l-3.1-.75c-1.17-4.65-2.43-9.29-4-13.83-.61,4.8-.85,9.64-1.19,14.47l-2.26-.18C137.36,297.79,138.74,285.46,139.3,273.1ZM89.6,273l2.29-.31c-.14,11.42-1.57,22.77-2,34.17,1.86,0,3.72-.05,5.57-.09.81-11.12,1.7-22.24,2.19-33.37l2.71-.38c-.83,10.29-1.19,20.62-2.11,30.91-.31,1.91-.62,4-2,5.48-2.51,1.18-5.33.92-7.94.25-1.84-4.65-.67-9.73-.53-14.57C88.68,287.71,88.42,280.26,89.6,273Zm150.55,29,4,.29c.1-5.49-.78-10.94-.81-16.43C241.45,291,241.38,296.64,240.15,302Zm2.44-29.26h2.8c.38,9.75,1.26,19.48,1.41,29.24a33.41,33.41,0,0,0,.84,7.52l-1.81.86c-2.29-.48-1.05-3.25-1.39-4.83-1.65-.06-3.29-.1-4.94-.14-.28,1.56-.58,3.13-.85,4.7l-2.61.2C237.9,297.7,240.58,285.27,242.59,272.72Zm-20.38-37.45ZM342.55,90.78c-1,2.64-2.44,5.26-2.21,8.2.23,25.51-.25,51,.24,76.54,11.59.14,23.18.21,34.77,0a38.09,38.09,0,0,0,1-6.53c.18-25.11-.27-50.22.19-75.32.2,27.31.14,54.63,0,82-12.21,12.78-24.42,25.57-36.45,38.51-.44-39.37-.35-78.76-.37-118.13C339.39,93.74,341.18,92.21,342.55,90.78Z"/><path class="cls-7" d="M283.7,175.51c17.87.05,35.75-.11,53.62.08-.09,12.88,0,25.76-.07,38.64-17.84.13-35.67-.08-53.51.1.24-12.8.33-25.62,0-38.41Z"/><path class="cls-8" d="M246.75,175.84c12.32-.32,24.66-.35,37,.08.35,12.79.26,25.61,0,38.41-9.57-9.14-18.6-18.85-27.81-28.36a85,85,0,0,1-7.82-8.17Z"/><path class="cls-9" d="M394.79,252.07c2.46-1.61,4.42-6.92,7.8-4.6.67,2.17,1.08,4.42,1.78,6.58,1.22-.55,2.39-1.18,3.56-1.83.38.83.77,1.66,1.16,2.5-1.87,1.4-3.56,3.56-6.08,3.62-2.68-.14-3.12-3.29-4.35-5.1-.93.58-1.86,1.17-2.78,1.77C395.51,254,395.15,253.05,394.79,252.07Zm-131.56.06c2.54-1.71,4.16-6.29,7.77-5.16.57,2.2,1,4.46,1.72,6.62,1.45.71,2.37-1,3.49-1.54.34.71,1,2.12,1.35,2.83-2.25,1.57-4.5,4.36-7.58,3.17a56.62,56.62,0,0,1-3.06-4.91l-2.34,2Zm-72.92,0a75.87,75.87,0,0,1,5.54-5.37c3.68-.16,3,4.49,3.87,6.87,1.51.83,2.59-1.11,3.86-1.52,2.77,2.94-1.47,4.87-3.63,6.09-3.49,1.27-4.48-2.68-5.87-4.89L191.4,255Zm-65.41.16c2-2,3.89-3.94,5.87-5.88,3.42.94,2.57,5.24,4,7.81,1.18-.44,2.15-1.91,3.52-1.66.27.55.83,1.65,1.11,2.2-2.16,1.6-4.32,4.48-7.37,3.38-1.63-1.14-2.16-3.27-3.2-4.88l-1,.77C126.22,256.3,125.53,253.22,124.9,252.24Zm108.32-.1c2.8-2.69,5-5.94,7.89-8.55l3.32,0c.71,2.83-.27,5.59-1.24,8.22,1.66-1.84,3.31-4.06,5.86-4.64,2.91-.36,3.18,3.07,4.11,5,1.78-.38,2.33,1.25,3,2.51-1.6,1.11-3.14,2.88-5.31,2.25a27.64,27.64,0,0,1-3.3-4.44c-4.29,1.67-5.46,8.35-10.68,7.47-.26-3.18,1.11-6.11,2-9.08-1.6,1.38-3.14,2.84-4.71,4.27Zm119.12-6c.43-2.74,4.58-4.34,6.22-1.69,2.88,2.86,2.13,7.06.81,10.46,1-1,2-1.92,3-2.88.62.92,1.24,1.86,1.85,2.81-2.92,1.73-5.58,5.42-9.33,4.56-1-3.57,2.5-7.14,1-10.89-2.84,1.67-4.27,5-7.29,6.42l-1.08-2.75C349.23,250.23,351.66,248.7,352.34,246.09Zm73.53-3.25c1.38-1.58,4.25.11,3.86,2.09a32.93,32.93,0,0,1-2.38,9.92l3-2.95c.54.89,1.08,1.79,1.61,2.7-3.28,2-5.68,6.16-9.81,6.37a16.81,16.81,0,0,1-.71-7.31l2.56-.57c.15-1.07.43-3.21.57-4.29-2.67,1.78-4.79,4.19-7.13,6.35-.29-.78-.88-2.32-1.17-3.09C419.87,249.38,422.61,245.83,425.87,242.84Zm-40.82.09c.87-.17,1.75-.32,2.63-.45-1.55,6.38-3.56,13.5-8.7,17.94-4.48,1.11-3.64-4.94-4.05-7.65l-2.68,2.39c-.35-.91-.69-1.82-1-2.72,2.77-2.5,3.48-6.75,6.66-8.71l1,.33c.56,3.73-.18,7.55.49,11.3C382.2,251.71,383.48,247.19,385.05,242.93Zm-69.82-.75,2.42.36c1.56,4.12-.41,8.28-1.46,12.25,1-1,1.94-2,2.93-2.93l1.39,3.11c-3.1,1.74-5.37,4.67-8.62,6.14-2.32-.5-1.48-3.54-2-5.24-.51-1.88,1.2-2.6,2.73-2.67q.27-2.22.42-4.44a71,71,0,0,0-6.85,6.35c-.52-1-1-2.08-1.48-3.11C308.8,249.34,311.58,245.3,315.23,242.18Zm-158.83.48c1.22-1.25,2.84.21,3.49,1.32a28.07,28.07,0,0,1-2.32,11c1-1,1.87-2,2.82-3l1.79,2.77c-3.13,2.17-5.75,5.11-9.32,6.6-1.1-2.61-3.1-8,1.36-8.37.25-1.42.46-2.84.66-4.25-2.65,1.94-4.95,4.32-7.48,6.42l-.83-3.12C150.14,249.24,153,245.62,156.4,242.66Zm176.11,0a5,5,0,0,1,5.24-2.38c1.18,1.31.64,3.17.84,4.75-1.11,2.74-3.17,4.88-5.14,7,1.59,2,4,.93,5.85.05,2.7,2.42-.68,4.29-2.74,5.29-1.72.67-4.42,1.38-5.41-.71-.76-1.66-3.18-1.88-3.4-3.82C329.72,249.64,330,245.59,332.51,242.68ZM400,240.92c-1.66-2.88,1.42-5.91,4-6.72,3.55,0,1,3.84.69,5.71C403.28,240.59,401.66,241.94,400,240.92ZM268.25,238.1c1.11-2.29,3.49-4.89,6.23-3.39-.39,2.7-1.14,6.34-4.48,6.67C268,241.61,267.56,239.59,268.25,238.1Zm-69.7-3.52c.85-.78,3.45-.33,2.88,1.27-.32,2.56-1.67,5.3-4.55,5.59C192.93,240.16,196.48,235.93,198.55,234.58Zm-68.73,6.69c-.81-3.51,2.59-8.29,6.4-6.59C136.18,238.25,134,242.25,129.82,241.27Zm48.76-4.54c1-1.51,1.91-4.83,4.31-3.73.87,2.52.48,5.39.27,8-.45.3-1.34.92-1.78,1.23a71.16,71.16,0,0,0-3,12.49c1.27-.75,2.31-2.29,3.9-2.25l1,2.19c-2.22,1.77-4,4.05-6.37,5.65-1.37.94-3-.84-2.87-2.23a17.68,17.68,0,0,1,1.84-9.06,25.74,25.74,0,0,1-5.8,6.12l-.87-3a61.22,61.22,0,0,0,7.64-10.62c-2-.11-4.12.22-6.06-.53a8.94,8.94,0,0,1,.29-4.25C173.59,236.76,176.08,236.76,178.58,236.73Zm42.72.45c-.67,1.89-1.53,3.71-2.23,5.6,2-1.06,1.91-3.63,2.83-5.47Zm.91-1.91Zm-.14-7.24c.81-1.38,2.46-.82,3.77-.88,1.66,8.37-3.53,16.19-7.82,23,.33,1.27.67,2.55,1,3.82a8.47,8.47,0,0,0,5.92-1.8q.54,1.25,1.11,2.49c-2.25,3.08-6.09,4.86-9.74,3a35.2,35.2,0,0,1-1.53-3.65L212.92,255q-.58-1.44-1.14-2.88c1-1.2,2.62-2.19,2.6-3.94A43.39,43.39,0,0,1,222.07,228Zm-110-5.11c1.57-1.26,4-5.41,5.57-1.84a28.35,28.35,0,0,1-5.28,6.42c1.51.57,4,.44,4.35,2.44,1.26,5.66-.37,11.65-2.77,16.81h-3.48a22.48,22.48,0,0,1,3.14-13.17c-2-2.3-5.28-1.14-7.23.56-4.15,4.06-5.6,10.21-5.17,15.86.73,2.92,2.65,6.09,5.91,6.46,3.68.47,6.45-2.45,9.28-4.28l1.49,2.62c-4.53,2.63-9.32,7.44-15,5.05-5.63-1.32-7.11-7.91-6.79-12.9.86-8.37,6.22-17.22,14.74-19.37a57.44,57.44,0,0,1-4.63-5.59l1.64-1.69A49,49,0,0,0,112,222.92Z"/></svg>