<?xml version="1.0" encoding="utf-8"?>
<!-- Generator: Adobe Illustrator 24.0.1, SVG Export Plug-In . SVG Version: 6.00 Build 0)  -->
<svg version="1.1" id="Layer_1" xmlns="http://www.w3.org/2000/svg" xmlns:xlink="http://www.w3.org/1999/xlink" x="0px" y="0px"
	 viewBox="0 0 550 400" style="enable-background:new 0 0 550 400;" xml:space="preserve">
<style type="text/css">
	.st0{fill-rule:evenodd;clip-rule:evenodd;fill:#ED1B24;}
	.st1{fill-rule:evenodd;clip-rule:evenodd;fill:#BFD630;}
	.st2{fill-rule:evenodd;clip-rule:evenodd;fill:#0194DA;}
	.st3{fill-rule:evenodd;clip-rule:evenodd;fill:#B11707;}
	.st4{fill-rule:evenodd;clip-rule:evenodd;fill:#234986;}
	.st5{fill-rule:evenodd;clip-rule:evenodd;fill:#007E27;}
	.st6{fill-rule:evenodd;clip-rule:evenodd;fill:#66AA22;}
	.st7{fill-rule:evenodd;clip-rule:evenodd;fill:#020202;}
</style>
<g>
	<path class="st0" d="M205.37,62.32c0.05,40.17-0.05,80.33-0.05,120.5c-11.81,12.87-23.19,26.13-35.11,38.89
		c-10.06-0.2-20.11-0.08-30.17-0.09c-0.53-12.89-0.17-25.81-0.18-38.71c9.17-0.16,18.35,0.09,27.53-0.12
		c-0.03-27.24-0.09-54.48,0.03-81.71l0.61,0.87c0.37,8.79,0.28,17.61-0.07,26.4c0.63,17.99-0.03,36.01,0.37,54.01
		c0.56-17.66-0.21-35.35,0.45-53.02c-0.28-8.67-0.47-17.36-0.11-26.03c-0.18-1.69,1.91-2.07,3.16-2
		c10.95,0.05,21.91-0.03,32.87,0.15c-0.7-11.96,0.25-23.96-0.53-35.92c-4.93,3-7.89,8.25-12.73,11.33
		C195.62,71.63,200.63,67.07,205.37,62.32z"/>
	<path class="st1" d="M208.21,62.32c4.54-0.66,9.13-0.26,13.69-0.37c13.69,0.07,27.39-0.14,41.07,0.12
		c5.19,4.22,8.76,10.03,13.31,14.87c6.68,7.93,13.32,15.88,20.06,23.76c0.26,27.39-0.19,54.78,0.23,82.15l0.02,0.41
		c-12.31-0.43-24.65-0.4-36.97-0.08c0.34,0.49,1.02,1.47,1.36,1.96c-0.37-0.16-1.11-0.48-1.48-0.63c-1.38-5.98-0.11-12.14-0.7-18.19
		c-0.31-14.32,0.22-28.64-0.01-42.95c-0.49-7.54,0.88-15.19-0.44-22.65c-16.66,0.35-33.34,0.12-50.01,0.1
		C208.09,87.99,208.32,75.16,208.21,62.32z"/>
	<path class="st2" d="M355.58,97.72c10.7-11.93,21.45-23.81,32.23-35.67c9.51-0.12,19.02,0.11,28.53-0.14
		c0.47,13,0.31,26.04,0.07,39.05c-8.99-0.13-17.98-0.22-26.97,0.02c-0.46,25.1-0.01,50.21-0.19,75.32
		c-0.08,2.21-0.57,4.37-1.03,6.53c-11.59,0.24-23.18,0.17-34.77,0.03c-0.49-25.51-0.01-51.03-0.24-76.54
		c-0.23-2.94,1.17-5.56,2.21-8.2L355.58,97.72z"/>
	<path class="st3" d="M191.44,76.87c4.84-3.08,7.8-8.33,12.73-11.33c0.78,11.96-0.17,23.96,0.53,35.92
		c-10.96-0.18-21.92-0.1-32.87-0.15c-1.25-0.07-3.34,0.31-3.16,2c-0.36,8.67-0.17,17.36,0.11,26.03
		c-0.66,17.67,0.11,35.36-0.45,53.02c-0.4-18,0.26-36.02-0.37-54.01c0.35-8.79,0.44-17.61,0.07-26.4l-0.09-1.35
		C175.87,92.79,183.26,84.4,191.44,76.87z"/>
	<path class="st4" d="M445.11,293.07c-0.67,5.51-1.66,10.98-2.61,16.45c1.04,0,3.1,0.02,4.14,0.03
		C446.15,304.07,446.84,298.37,445.11,293.07z M445.21,280.25c0.62-0.04,1.84-0.11,2.46-0.15c0.89,12.46,1.31,24.94,2.1,37.4
		c-0.66,0.02-1.98,0.07-2.65,0.1c-0.2-1.63-0.39-3.24-0.57-4.85c-1.5-0.01-3-0.03-4.49-0.04c-0.42,2.2-0.32,5.41-3.56,5.04
		C440.67,305.24,443.02,292.76,445.21,280.25z M399.47,280.4c0.69,0.04,2.07,0.14,2.76,0.18c-0.55,7.6-0.93,15.21-1.55,22.8
		c-0.31,4.03-0.03,8.26-1.6,12.07c-1.09,2.28-3.93,1.98-6.02,2.21c-0.02-0.83-0.06-2.5-0.07-3.33c1.46-0.15,2.94-0.29,4.41-0.45
		C398.19,302.72,398.72,291.55,399.47,280.4z M350.06,280.66c1.76-0.01,4.04-1.36,5.5-0.08c1.63,1.14-0.07,2.68-1.05,3.48
		c-0.82,9.78-1.11,19.59-2.05,29.36c1.38,1.07,1.94,2.46,1.24,4.15c-1.86-0.01-3.72-0.02-5.57-0.01c0.23-2.55,2.13-4.63,1.96-7.25
		c0.2-8.03,1.1-16.01,1.46-24.03C351.82,284.26,350.6,282.52,350.06,280.66z M300.53,280.65c0.96-0.04,1.92-0.07,2.89-0.1
		c0.57,6.63,1.64,13.21,2.37,19.83c0.42,2.81,0.39,5.76,1.61,8.39c0.46-9.56,0.9-19.12,1.69-28.65c0.67,0,1.99,0.01,2.66,0.01
		c-0.91,12.39-1.37,24.84-2.65,37.19l-1.29,0.44l-1.1-0.68c-1.24-8.99-2.24-18.01-3.43-27.01c-1.62,2.75-0.64,6.21-1.14,9.25
		c-0.76,5.91-0.3,11.97-1.34,17.82c-0.62,0.18-1.86,0.54-2.48,0.72C298.79,305.44,300.18,293.07,300.53,280.65z M202.06,314.12
		c1.91,0.01,3.82,0.03,5.74,0.05c0.57-4.42,0.71-8.87,0.84-13.32c-1.78-0.08-3.56-0.17-5.34-0.27
		C202.3,305.03,202.51,309.61,202.06,314.12z M204.15,283.54c-0.64,4.65-0.58,9.36-0.88,14.04c1.9-0.04,3.8-0.07,5.71-0.1
		c0.23-4.63,0.58-9.26,0.67-13.9C207.81,283.56,205.98,283.55,204.15,283.54z M201.53,280.72c3.15-1.24,6.52-0.33,9.72,0.14
		c2.04,5.97,0.66,12.44-0.57,18.44c0.88,5.66,0.6,11.92-1.65,17.23c-2.66,1.96-6.59,0.63-9.74,1.06
		C199.84,305.29,201.17,293.03,201.53,280.72z M154.47,283.6c-0.17,5.45-0.53,10.9-1.13,16.33c1.89,0.14,3.78,0.23,5.67,0.3
		c0.43-5.58,1.17-11.15,1.12-16.75C158.24,283.52,156.36,283.56,154.47,283.6z M152.17,280.44c2.99-0.22,6.3-0.98,9.11,0.4
		c2.49,4.05,1.03,9.1,0.95,13.57c-0.46,3.6-0.34,9.16-5.2,9.45c1.14,4.65,2.72,9.2,3.5,13.94c-0.77-0.19-2.33-0.56-3.1-0.75
		c-1.17-4.65-2.43-9.29-3.98-13.83c-0.61,4.8-0.85,9.64-1.19,14.47c-0.76-0.07-1.51-0.13-2.26-0.18
		C150.23,305.13,151.61,292.8,152.17,280.44z M102.47,280.3c0.57-0.08,1.72-0.23,2.29-0.31c-0.14,11.42-1.57,22.77-1.97,34.17
		c1.86-0.03,3.72-0.05,5.57-0.09c0.81-11.12,1.7-22.24,2.19-33.37c0.68-0.1,2.03-0.29,2.71-0.38c-0.83,10.29-1.19,20.62-2.11,30.91
		c-0.31,1.91-0.62,3.96-1.95,5.48c-2.51,1.18-5.33,0.92-7.94,0.25c-1.84-4.65-0.67-9.73-0.53-14.57
		C101.55,295.05,101.29,287.6,102.47,280.3z M253.02,309.32c1.34,0.1,2.69,0.19,4.04,0.29c0.1-5.49-0.78-10.94-0.81-16.43
		C254.32,298.33,254.25,303.98,253.02,309.32z M255.46,280.06c0.93,0,1.86-0.01,2.8-0.01c0.38,9.75,1.26,19.48,1.41,29.24
		c-0.04,2.53,0.31,5.05,0.84,7.52c-0.45,0.22-1.36,0.65-1.81,0.86c-2.29-0.48-1.05-3.25-1.39-4.83c-1.65-0.06-3.29-0.1-4.94-0.14
		c-0.28,1.56-0.58,3.13-0.85,4.7c-0.65,0.05-1.96,0.15-2.61,0.2C250.77,305.04,253.45,292.61,255.46,280.06z M235.08,242.61
		C235.59,243.08,235.59,243.08,235.08,242.61z M355.42,98.12c-1.04,2.64-2.44,5.26-2.21,8.2c0.23,25.51-0.25,51.03,0.24,76.54
		c11.59,0.14,23.18,0.21,34.77-0.03c0.46-2.16,0.95-4.32,1.03-6.53c0.18-25.11-0.27-50.22,0.19-75.32
		c0.2,27.31,0.14,54.63,0.03,81.95c-12.21,12.78-24.42,25.57-36.45,38.51c-0.44-39.37-0.35-78.76-0.37-118.13
		C352.26,101.08,354.05,99.55,355.42,98.12z"/>
	<path class="st5" d="M296.57,182.85c17.87,0.05,35.75-0.11,53.62,0.08c-0.09,12.88,0.04,25.76-0.07,38.64
		c-17.84,0.13-35.67-0.08-53.51,0.1c0.24-12.8,0.33-25.62-0.02-38.41L296.57,182.85z"/>
	<path class="st6" d="M259.62,183.18c12.32-0.32,24.66-0.35,36.97,0.08c0.35,12.79,0.26,25.61,0.02,38.41
		c-9.57-9.14-18.6-18.85-27.81-28.36c-2.69-2.64-5.5-5.19-7.82-8.17C260.64,184.65,259.96,183.67,259.62,183.18z"/>
	<path class="st7" d="M407.66,259.41c2.46-1.61,4.42-6.92,7.8-4.6c0.67,2.17,1.08,4.42,1.78,6.58c1.22-0.55,2.39-1.18,3.56-1.83
		c0.38,0.83,0.77,1.66,1.16,2.5c-1.87,1.4-3.56,3.56-6.08,3.62c-2.68-0.14-3.12-3.29-4.35-5.1c-0.93,0.58-1.86,1.17-2.78,1.77
		C408.38,261.37,408.02,260.39,407.66,259.41z M276.1,259.47c2.54-1.71,4.16-6.29,7.77-5.16c0.57,2.2,0.96,4.46,1.72,6.62
		c1.45,0.71,2.37-0.98,3.49-1.54c0.34,0.71,1.02,2.12,1.35,2.83c-2.25,1.57-4.5,4.36-7.58,3.17c-1.19-1.53-2.04-3.28-3.06-4.91
		c-0.58,0.49-1.76,1.48-2.34,1.97C277.11,261.7,276.44,260.22,276.1,259.47z M203.18,259.42c1.84-1.79,3.52-3.77,5.54-5.37
		c3.68-0.16,2.97,4.49,3.87,6.87c1.51,0.83,2.59-1.11,3.86-1.52c2.77,2.94-1.47,4.87-3.63,6.09c-3.49,1.27-4.48-2.68-5.87-4.89
		c-0.89,0.6-1.78,1.19-2.68,1.78C204,261.64,203.45,260.16,203.18,259.42z M137.77,259.58c1.96-1.96,3.89-3.94,5.87-5.88
		c3.42,0.94,2.57,5.24,3.97,7.81c1.18-0.44,2.15-1.91,3.52-1.66c0.27,0.55,0.83,1.65,1.11,2.2c-2.16,1.6-4.32,4.48-7.37,3.38
		c-1.63-1.14-2.16-3.27-3.2-4.88c-0.26,0.19-0.78,0.58-1.04,0.77C139.09,263.64,138.4,260.56,137.77,259.58z M246.09,259.48
		c2.8-2.69,5.01-5.94,7.89-8.55c0.83,0.01,2.49,0.03,3.32,0.04c0.71,2.83-0.27,5.59-1.24,8.22c1.66-1.84,3.31-4.06,5.86-4.64
		c2.91-0.36,3.18,3.07,4.11,5c1.78-0.38,2.33,1.25,3.03,2.51c-1.6,1.11-3.14,2.88-5.31,2.25c-1.36-1.26-2.23-2.95-3.3-4.44
		c-4.29,1.67-5.46,8.35-10.68,7.47c-0.26-3.18,1.11-6.11,2-9.08c-1.6,1.38-3.14,2.84-4.71,4.27
		C246.82,261.77,246.33,260.24,246.09,259.48z M365.21,253.43c0.43-2.74,4.58-4.34,6.22-1.69c2.88,2.86,2.13,7.06,0.81,10.46
		c1.01-0.96,2-1.92,3.02-2.88c0.62,0.92,1.24,1.86,1.85,2.81c-2.92,1.73-5.58,5.42-9.33,4.56c-1-3.57,2.5-7.14,0.97-10.89
		c-2.84,1.67-4.27,5.02-7.29,6.42c-0.27-0.69-0.81-2.06-1.08-2.75C362.1,257.57,364.53,256.04,365.21,253.43z M438.74,250.18
		c1.38-1.58,4.25,0.11,3.86,2.09c-0.28,3.41-1.07,6.76-2.38,9.92c1.02-0.98,2.02-1.97,3.04-2.95c0.54,0.89,1.08,1.79,1.61,2.7
		c-3.28,2.05-5.68,6.16-9.81,6.37c-0.74-2.38-1.05-4.85-0.71-7.31c0.64-0.15,1.92-0.43,2.56-0.57c0.15-1.07,0.43-3.21,0.57-4.29
		c-2.67,1.78-4.79,4.19-7.13,6.35c-0.29-0.78-0.88-2.32-1.17-3.09C432.74,256.72,435.48,253.17,438.74,250.18z M397.92,250.27
		c0.87-0.17,1.75-0.32,2.63-0.45c-1.55,6.38-3.56,13.5-8.7,17.94c-4.48,1.11-3.64-4.94-4.05-7.65c-0.89,0.79-1.79,1.59-2.68,2.39
		c-0.35-0.91-0.69-1.82-1.02-2.72c2.77-2.5,3.48-6.75,6.66-8.71l1.01,0.33c0.56,3.73-0.18,7.55,0.49,11.3
		C395.07,259.05,396.35,254.53,397.92,250.27z M328.1,249.52c0.61,0.09,1.81,0.27,2.42,0.36c1.56,4.12-0.41,8.28-1.46,12.25
		c0.97-0.99,1.94-1.97,2.93-2.93c0.35,0.78,1.05,2.34,1.39,3.11c-3.1,1.74-5.37,4.67-8.62,6.14c-2.32-0.5-1.48-3.54-1.96-5.24
		c-0.51-1.88,1.2-2.6,2.73-2.67c0.18-1.48,0.32-2.96,0.42-4.44c-2.4,1.99-4.73,4.06-6.85,6.35c-0.52-1.02-1.01-2.08-1.48-3.11
		C321.67,256.68,324.45,252.64,328.1,249.52z M169.27,250c1.22-1.25,2.84,0.21,3.49,1.32c0.14,3.76-0.97,7.5-2.32,10.99
		c0.95-0.98,1.87-1.98,2.82-2.96c0.6,0.92,1.19,1.84,1.79,2.77c-3.13,2.17-5.75,5.11-9.32,6.6c-1.1-2.61-3.1-8.05,1.36-8.37
		c0.25-1.42,0.46-2.84,0.66-4.25c-2.65,1.94-4.95,4.32-7.48,6.42c-0.21-0.78-0.62-2.34-0.83-3.12
		C163.01,256.58,165.82,252.96,169.27,250z M345.38,250.02c1.07-1.78,3.17-2.82,5.24-2.38c1.18,1.31,0.64,3.17,0.84,4.75
		c-1.11,2.74-3.17,4.88-5.14,7.01c1.59,2,3.97,0.93,5.85,0.05c2.7,2.42-0.68,4.29-2.74,5.29c-1.72,0.67-4.42,1.38-5.41-0.71
		c-0.76-1.66-3.18-1.88-3.4-3.82C342.59,256.98,342.85,252.93,345.38,250.02z M412.89,248.26c-1.66-2.88,1.42-5.91,4.03-6.72
		c3.55-0.01,0.98,3.84,0.69,5.71C416.15,247.93,414.53,249.28,412.89,248.26z M281.12,245.44c1.11-2.29,3.49-4.89,6.23-3.39
		c-0.39,2.7-1.14,6.34-4.48,6.67C280.86,248.95,280.43,246.93,281.12,245.44z M211.42,241.92c0.85-0.78,3.45-0.33,2.88,1.27
		c-0.32,2.56-1.67,5.3-4.55,5.59C205.8,247.5,209.35,243.27,211.42,241.92z M142.69,248.61c-0.81-3.51,2.59-8.29,6.4-6.59
		C149.05,245.59,146.86,249.59,142.69,248.61z M191.45,244.07c1-1.51,1.91-4.83,4.31-3.73c0.87,2.52,0.48,5.39,0.27,8.02
		c-0.45,0.3-1.34,0.92-1.78,1.23c-1.47,4.03-2.25,8.27-2.97,12.49c1.27-0.75,2.31-2.29,3.9-2.25c0.25,0.55,0.75,1.64,1,2.19
		c-2.22,1.77-4.01,4.05-6.37,5.65c-1.37,0.94-3.01-0.84-2.87-2.23c-0.27-3.11,0.5-6.26,1.84-9.06c-1.46,2.45-3.66,4.3-5.8,6.12
		c-0.22-0.75-0.65-2.24-0.87-2.99c2.87-3.31,5.54-6.78,7.64-10.62c-2.01-0.11-4.12,0.22-6.06-0.53c-0.25-1.4-0.15-2.82,0.29-4.25
		C186.46,244.1,188.95,244.1,191.45,244.07z M234.17,244.52c-0.67,1.89-1.53,3.71-2.23,5.6c2.04-1.06,1.91-3.63,2.83-5.47
		L234.17,244.52z M235.08,242.61C235.59,243.08,235.59,243.08,235.08,242.61z M234.94,235.37c0.81-1.38,2.46-0.82,3.77-0.88
		c1.66,8.37-3.53,16.19-7.82,22.97c0.33,1.27,0.67,2.55,1.01,3.82c2.18,0.27,4.17-0.57,5.92-1.8c0.36,0.83,0.73,1.66,1.11,2.49
		c-2.25,3.08-6.09,4.86-9.74,2.97c-0.62-1.17-1.05-2.43-1.53-3.65c-0.47,0.27-1.4,0.8-1.87,1.07c-0.39-0.96-0.77-1.92-1.14-2.88
		c1.01-1.2,2.62-2.19,2.6-3.94C227.99,248.29,230.8,241.33,234.94,235.37z M124.9,230.26c1.57-1.26,4.02-5.41,5.57-1.84
		c-1.47,2.35-3.18,4.59-5.28,6.42c1.51,0.57,3.98,0.44,4.35,2.44c1.26,5.66-0.37,11.65-2.77,16.81c-1.16,0-2.32,0-3.48,0.01
		c-0.42-4.6,0.85-9.2,3.14-13.17c-1.97-2.3-5.28-1.14-7.23,0.56c-4.15,4.06-5.6,10.21-5.17,15.86c0.73,2.92,2.65,6.09,5.91,6.46
		c3.68,0.47,6.45-2.45,9.28-4.28c0.49,0.86,0.99,1.74,1.49,2.62c-4.53,2.63-9.32,7.44-14.97,5.05c-5.63-1.32-7.11-7.91-6.79-12.9
		c0.86-8.37,6.22-17.22,14.74-19.37c-1.59-1.82-3.28-3.58-4.63-5.59c0.41-0.42,1.23-1.26,1.64-1.69
		C122.05,228.6,123.46,229.45,124.9,230.26z"/>
</g>
</svg>
